<svg width="388" height="213" viewBox="0 0 388 213" fill="#ffc107" xmlns="http://www.w3.org/2000/svg">
<path d="M200.453 130.324C195.893 130.324 191.419 127.92 189.01 123.971C185.31 117.961 187.117 110.406 190.645 105.684C193.828 101.306 198.646 97.9574 205.787 95.1243C208.024 94.2657 210.261 93.4072 212.498 92.7204C215.854 91.5185 219.295 90.3165 222.565 88.7712C226.35 86.9683 230.136 83.7059 229.534 80.0142C229.276 78.6406 228.329 77.4386 226.867 76.7518C225.404 76.065 223.855 76.065 222.651 76.666L221.446 74.4338C223.339 73.4036 225.834 73.4036 228.071 74.4338C230.308 75.464 231.771 77.4386 232.201 79.585C232.889 83.8776 229.792 88.1702 223.855 91.0892C220.5 92.7204 216.972 93.9223 213.531 95.1243C211.38 95.8969 209.143 96.6696 206.992 97.5281C200.281 100.19 195.893 103.28 192.968 107.229C189.44 112.037 188.838 118.39 191.419 122.683C193.484 126.117 197.786 128.177 201.744 127.748C206.131 127.319 208.455 123.885 211.036 120.193C211.982 118.905 212.928 117.532 213.961 116.33C218.779 110.835 225.404 106.714 232.459 102.679C243.386 96.3262 254.571 93.5789 266.358 90.7458L267.821 90.4024C271.865 89.6297 275.392 89.458 278.662 89.9731C285.115 91.0892 289.847 93.1497 293.632 96.412L293.718 96.4979C294.493 97.2706 295.181 98.0432 295.955 98.7301C297.418 100.19 298.795 101.563 300.085 103.194C301.72 104.911 303.613 105.942 305.161 105.942C310.754 105.77 316.002 108.517 320.648 114.098L318.669 115.729C314.54 110.835 310.066 108.346 305.248 108.517C301.892 108.431 299.225 105.942 298.278 104.911L298.192 104.826C296.988 103.366 295.697 101.992 294.235 100.533C293.46 99.7603 292.772 99.0735 291.998 98.3008C288.642 95.3818 284.254 93.4931 278.404 92.4628C275.564 92.0336 272.295 92.2053 268.595 92.8921L267.133 93.2355C255.517 96.0686 244.505 98.8159 233.922 104.911C227.125 108.861 220.586 112.81 216.112 118.047C215.165 119.163 214.305 120.365 213.359 121.739C210.691 125.516 207.766 129.809 202.174 130.324C201.399 130.238 200.883 130.324 200.453 130.324Z" fill="#E9C62A"/>
<path d="M334.156 197.804C332.264 197.804 330.371 197.375 328.564 196.602C323.918 194.542 319.358 192.653 314.454 193.168C305.42 194.198 296.213 193.511 288.556 191.279C284.082 189.991 280.124 188.189 276.683 185.956C275.908 186.643 275.048 187.244 274.188 187.845C257.066 200.122 233.664 200.637 214.563 189.305C205.271 183.81 200.883 179.689 197.872 168.614C194.688 156.852 195.807 145.434 200.883 137.364L203.034 138.738C198.302 146.207 197.27 156.852 200.281 168.013C203.034 178.058 206.734 181.75 215.768 187.158C234.008 197.976 256.292 197.461 272.553 185.785C273.155 185.355 273.758 184.84 274.36 184.411C271.521 182.179 269.025 179.603 267.133 176.598C259.819 165.609 260.852 149.984 269.456 141.141C270.402 140.111 271.779 138.909 273.585 138.394C276.511 137.536 279.952 138.738 282.964 141.742C288.986 147.838 291.481 157.625 289.244 166.725C287.696 173.079 283.996 179.088 278.662 184.153C288.9 190.592 302.666 191.966 314.195 190.678C319.702 190.077 324.692 192.052 329.596 194.284C332.694 195.658 337.168 195.829 340.265 193.082C341.211 192.224 341.728 191.108 342.244 189.991C343.19 187.931 344.223 185.527 348.267 185.184C351.45 184.84 354.203 185.871 356.87 186.901C359.796 188.017 362.549 188.961 365.732 188.36C367.109 188.103 368.572 187.502 370.292 186.643C373.476 185.012 377.778 182.007 380.101 177.199C381.994 173.164 380.961 170.074 379.671 166.21C379.326 165.266 379.068 164.322 378.724 163.377C378.208 161.746 378.208 160.287 378.208 158.913C378.208 157.883 378.208 156.938 378.036 155.994C377.95 155.393 377.348 154.449 376.745 153.504C375.713 151.787 374.508 149.898 375.111 148.01C375.541 146.636 376.917 145.606 378.466 144.404C379.585 143.545 380.703 142.687 381.133 141.828C382.854 138.909 384.059 135.218 384.833 130.839C385.349 125.86 383.8 120.88 382.338 117.017C381.994 116.158 382.08 115.3 382.252 114.441C382.338 114.098 382.338 113.754 382.338 113.411L382.424 113.068C382.596 112.467 382.768 111.866 382.94 111.265C383.628 108.947 384.317 106.715 384.145 104.568C384.059 103.967 383.973 103.28 383.886 102.679C383.456 99.6747 383.026 97.0132 381.649 94.3518C381.047 94.6952 380.187 95.5537 379.757 95.983C379.585 96.1547 379.499 96.2406 379.326 96.4123L379.24 96.4981C378.466 97.0991 377.606 97.6142 376.745 98.1293C375.455 98.902 374.164 99.7605 373.046 100.791C372.013 101.735 370.895 102.25 369.776 102.164H369.604C366.679 101.735 364.012 101.048 361.172 100.361L359.624 99.9322C354.978 99.1595 349.815 98.8161 343.965 99.0737C340.695 99.4171 337.942 100.104 335.189 101.306H335.103C333.124 101.993 330.973 101.22 328.822 98.902L328.736 98.7303C328.478 98.3869 328.306 98.1293 328.048 97.7859C327.273 96.6698 326.671 95.8113 325.897 94.9528L323.66 92.6348C323.574 92.5489 323.488 92.4631 323.402 92.3772C323.143 92.1196 322.541 91.4328 322.283 91.347L322.197 91.5187C322.025 91.6904 321.767 92.1196 321.767 92.4631C321.509 94.7811 321.165 97.0991 320.734 99.2454C320.046 103.109 319.358 106.715 319.702 110.406C319.788 110.75 319.788 111.093 319.874 111.522C320.046 113.068 320.218 114.613 321.337 115.214L319.96 117.446C317.809 116.158 317.551 113.669 317.293 111.866C317.207 111.522 317.207 111.179 317.121 110.835V110.75C316.777 106.715 317.465 102.679 318.239 98.8161C318.669 96.6698 319.014 94.4377 319.272 92.2913C319.272 91.1753 319.874 90.2309 320.39 89.6299C320.993 88.8573 321.767 88.6855 322.283 88.6855H322.369C323.746 88.6855 324.778 89.8875 325.467 90.6601L327.876 93.2357C328.822 94.266 329.51 95.2103 330.285 96.3264C330.457 96.584 330.629 96.8415 330.887 97.1849C331.833 98.2152 333.124 99.2454 334.328 98.902C337.254 97.6142 340.351 96.7557 343.879 96.4123C350.073 96.1547 355.322 96.4981 360.226 97.3566H360.312L361.861 97.7859C364.528 98.4727 367.109 99.1595 369.948 99.5888C370.378 99.5888 370.809 99.3312 371.325 98.902C372.615 97.7001 373.992 96.8415 375.369 95.983C376.143 95.4679 376.917 95.0386 377.606 94.5235L377.95 94.1801C379.24 92.9782 380.789 91.4328 382.338 91.7762C382.768 91.8621 383.456 92.2055 383.886 93.1499C385.435 96.2406 385.865 99.1595 386.382 102.336C386.468 102.937 386.554 103.624 386.64 104.225V104.311C386.898 106.972 386.123 109.548 385.349 112.037C385.177 112.553 385.005 113.153 384.833 113.669C384.833 114.098 384.747 114.441 384.661 114.785C384.575 115.128 384.489 115.729 384.575 115.901V115.987C386.123 120.108 387.844 125.516 387.242 131.097C386.382 135.819 385.091 139.768 383.198 142.944C382.51 144.146 381.133 145.262 379.843 146.293C378.81 147.065 377.606 148.095 377.348 148.696C377.089 149.383 378.036 150.929 378.724 151.959C379.412 153.075 380.101 154.191 380.273 155.307C380.531 156.509 380.531 157.625 380.531 158.655C380.531 159.943 380.531 161.145 380.961 162.347C381.219 163.291 381.563 164.236 381.908 165.094C383.284 169.215 384.661 173.079 382.252 178.058C379.671 183.467 374.852 186.815 371.325 188.704C369.432 189.734 367.711 190.335 366.077 190.678C362.119 191.537 358.849 190.335 355.752 189.133C353.257 188.189 350.848 187.33 348.267 187.588C345.686 187.845 345.255 188.961 344.395 190.936C343.879 192.224 343.19 193.683 341.814 194.885C339.921 196.86 337.082 197.804 334.156 197.804ZM275.564 140.712C275.134 140.712 274.79 140.798 274.36 140.884C273.155 141.227 272.123 142.172 271.348 142.944C263.519 150.929 262.659 165.094 269.284 175.139C271.262 178.058 273.671 180.548 276.425 182.608C281.587 177.886 285.201 172.134 286.749 166.124C288.814 157.883 286.577 149.04 281.157 143.545C280.469 142.858 278.059 140.712 275.564 140.712Z" fill="#E9C62A"/>
<path d="M348.783 161.66C347.32 161.66 345.858 161.402 344.395 160.801C341.986 159.857 340.179 158.054 338.372 156.337C337.684 155.65 336.996 154.963 336.221 154.362C334.501 152.903 332.608 151.787 330.543 150.585C328.392 149.297 326.241 148.009 324.262 146.292C317.207 140.111 314.626 129.379 318.239 120.708C318.411 120.365 318.583 120.021 318.756 119.678C319.1 118.905 319.444 118.219 319.444 117.618C319.444 117.017 318.756 116.072 318.325 115.385C318.067 115.042 317.809 114.613 317.637 114.355L319.874 113.067C320.046 113.325 320.218 113.668 320.476 114.012C321.165 115.042 322.025 116.244 322.025 117.532C322.111 118.819 321.509 119.936 321.079 120.88C320.906 121.138 320.82 121.481 320.648 121.738C317.465 129.379 319.702 138.909 325.983 144.404C327.79 145.949 329.768 147.151 331.919 148.439C333.898 149.641 336.049 150.928 337.856 152.474C338.63 153.16 339.405 153.847 340.093 154.534C341.728 156.165 343.362 157.625 345.341 158.483C350.159 160.458 355.666 157.625 360.398 154.878L361.689 157.11C357.559 159.514 353.085 161.66 348.783 161.66Z" fill="#E9C62A"/>
<path d="M85.936 213C81.548 213 77.0741 212.399 72.7721 211.884C69.1585 211.455 65.717 211.026 62.3615 210.854C50.4882 210.425 41.1961 208.45 33.1085 204.758C21.1492 199.264 12.4593 188.017 8.50157 173.079C6.7808 166.554 6.00646 159.772 6.17853 151.787C6.26457 147.323 4.974 143.116 3.68342 138.652C2.65096 135.218 1.61851 131.698 1.18831 128.006C-0.188297 115.987 0.672085 103.882 3.59739 92.0341C4.62984 87.8273 6.26457 83.964 7.8993 80.1006C9.27591 76.7524 10.8246 73.2324 11.771 69.7125C14.7824 58.5516 17.5356 49.9664 25.279 41.8104L26.3115 40.7802C30.8715 35.8866 35.6897 30.9071 40.0776 25.756C42.1425 23.3521 43.5191 20.519 44.9818 17.4283C46.2724 14.7669 47.5629 12.1055 49.3697 9.61573C55.2203 1.7173 65.4589 -0.600714 76.7299 3.60606C85.8499 6.9543 91.0983 11.6762 94.1957 19.4029C95.3142 22.1502 95.9164 25.0692 96.4327 27.8165C97.0349 30.8213 97.6372 33.7403 98.7557 36.3158C100.132 39.4924 102.283 42.4972 104.778 44.8152C105.639 45.5879 107.187 46.2747 108.65 46.9616C110.285 47.6484 111.661 48.3352 112.522 49.1937C115.103 51.941 114.07 56.3195 110.113 60.2687C105.209 65.1623 94.4538 67.4803 87.4847 66.7076C84.9896 66.4501 82.8386 65.2481 81.0318 64.2179C77.7624 62.415 75.7835 61.4706 73.1163 63.1877C72.8582 63.3594 72.6861 63.5311 72.428 63.6169C72.428 63.6169 72.3419 63.6169 72.3419 63.7028C72.3419 63.7028 72.3419 63.7886 72.2559 63.7886C71.0514 65.935 69.6748 68.1671 67.5238 69.5408C63.1359 72.2022 57.8015 71.4295 53.5856 67.5661C46.3584 60.8697 39.8195 56.7487 33.6247 54.7741C30.7855 53.9156 29.3228 54.0015 29.0647 54.259C29.0647 54.259 29.0647 54.7741 29.9251 56.1478C31.6459 58.8092 34.6572 60.3545 38.1848 61.9857L56.4249 70.3134C56.769 70.4851 57.1992 70.6568 57.7154 70.8285C60.8989 72.2022 65.2008 74.0909 66.7495 76.8382C67.2657 77.7826 67.5238 78.8987 67.6959 79.8431V80.0148C68.6423 84.9942 70.4491 89.3727 72.2559 94.0946L72.8582 95.5541C73.7186 97.7004 74.665 99.7608 75.6114 101.735C76.4718 103.624 77.4182 105.599 78.1926 107.573C81.8922 116.76 89.8937 123.456 97.293 128.779C99.7881 130.582 102.283 131.956 104.95 133.415C106.069 134.016 107.187 134.703 108.392 135.304C112.608 137.793 114.759 141.657 116.996 145.692L125.342 160.802C126.46 158.398 127.665 155.994 128.783 153.676C130.16 150.929 131.622 148.01 132.827 145.177C139.022 131.097 140.226 117.275 136.096 106.457L138.505 105.513C142.893 117.017 141.689 131.44 135.15 146.207C133.859 149.126 132.397 152.045 131.02 154.792C129.557 157.711 128.095 160.63 126.804 163.549C129.385 168.357 133.515 176.942 130.676 182.437C129.213 185.27 126.976 186.558 124.653 185.871C121.728 185.012 119.749 181.235 120.179 177.371C120.695 172.564 122.158 168.014 123.965 163.635C123.879 163.463 123.793 163.292 123.707 163.12L114.673 146.808C112.522 142.859 110.629 139.511 107.015 137.364C105.897 136.677 104.778 136.076 103.66 135.475C100.993 134.016 98.3255 132.556 95.6583 130.668C87.9149 125.087 79.5692 118.133 75.6114 108.26C74.8371 106.286 73.9767 104.483 73.0303 102.508C72.0838 100.448 71.1374 98.3872 70.191 96.155L69.5887 94.6955C67.6959 89.8878 65.8891 85.3376 64.8566 80.1006V79.9289C64.6845 79.0704 64.5125 78.2977 64.1683 77.6967C63.0498 75.7221 58.8339 73.9192 56.3388 72.8032C55.9086 72.6314 55.3924 72.3739 55.0483 72.2022L36.8081 63.8745C33.7968 62.5009 29.667 60.6121 27.43 57.0063C26.9137 56.2336 25.4511 53.8298 26.7417 52.1986C27.8602 50.8249 30.2692 50.6532 34.141 51.8551C40.6799 53.9156 47.5629 58.2941 55.1343 65.1623C58.5758 68.3388 62.6196 68.9398 65.9751 66.8793C66.5774 66.5359 67.0936 66.0208 67.6098 65.5057C67.0076 65.5915 66.4913 65.6774 65.8891 65.5915C62.3615 65.2481 60.2106 61.7282 59.6943 58.4658C59.4362 56.9204 59.4362 55.461 59.3502 54.0015C59.3502 52.542 59.2641 51.2542 59.0921 49.9664C58.7479 47.9918 57.9736 46.1889 57.1132 44.2143C56.769 43.4416 56.4249 42.6689 56.1668 41.8963C51.6928 30.4779 62.2755 18.1151 69.9329 12.964C72.8582 10.9894 78.4507 8.15624 83.1828 10.9894C89.8937 15.0244 87.5707 24.1248 86.1081 29.5335L86.022 29.7911C85.4198 32.1091 85.3337 34.6847 85.2477 37.3461C85.0756 41.7246 84.9896 46.1889 82.4084 50.0522C81.376 51.5976 79.9994 52.542 78.7948 53.3146C77.8484 53.9156 76.988 54.5166 76.3857 55.2892C75.5254 56.3195 74.751 57.9507 74.0627 59.5819C77.1601 58.8092 79.8273 60.2687 82.2363 61.5565C83.9571 62.5009 85.85 63.5311 87.7428 63.7886C94.0236 64.5613 103.918 62.415 108.306 58.1224C108.822 57.6073 113.124 53.2288 110.629 50.6532C110.199 50.1381 108.822 49.5371 107.618 49.022C105.983 48.2493 104.176 47.4767 103.058 46.4464C100.304 43.785 97.9813 40.6085 96.4327 37.0885C95.1421 34.1695 94.5398 31.0788 93.9375 27.9882C93.3353 25.155 92.819 22.4936 91.7866 20.0039C88.9473 13.0498 84.2152 8.75721 75.7835 5.58066C65.631 1.88901 56.5109 3.77776 51.3486 10.7318C49.7139 12.964 48.4233 15.5396 47.2188 18.1151C45.7561 21.2058 44.2074 24.2965 41.9704 26.9579C37.6685 32.6242 32.7644 37.6036 28.0322 42.4972L26.9998 43.5275C19.6865 51.34 17.1054 59.5819 14.0941 70.3993C13.0616 74.0909 11.5989 77.6967 10.1363 81.1308C8.5876 84.8225 6.95288 88.6859 6.00646 92.6351C3.16719 104.225 2.39285 115.987 3.68342 127.749C4.02758 131.183 5.06004 134.617 6.09249 137.965C7.38307 142.43 8.75968 146.98 8.67364 151.873C8.50157 159.6 9.27591 166.211 10.9106 172.478C14.6103 186.644 22.8699 197.289 34.141 202.44C41.9704 206.046 50.9184 207.935 62.4475 208.364C65.9751 208.536 69.5887 208.965 73.0303 209.394C78.4507 210.081 84.0431 210.768 89.4636 210.339C94.5398 209.91 99.444 207.849 104.864 203.814C105.639 203.213 106.413 202.698 107.273 202.097C112.006 198.749 116.48 195.572 117.254 189.906L119.835 190.249C118.975 197.032 113.554 200.895 108.822 204.243C108.048 204.844 107.273 205.359 106.499 205.96C100.649 210.253 95.4002 212.485 89.8077 213C88.4311 213 87.1405 213 85.936 213ZM125.428 166.897C124.051 170.417 123.018 174.109 122.588 177.887C122.244 180.72 123.707 183.209 125.255 183.639C126.632 184.068 127.751 182.437 128.267 181.492C130.16 177.715 127.665 171.276 125.428 166.897ZM78.7948 12.7064C75.8695 12.7064 72.7721 14.4235 71.3955 15.4537C63.8242 20.519 54.8762 31.9374 58.5758 41.3811C58.8339 42.1538 59.1781 42.8406 59.5222 43.6133C60.3826 45.5879 61.329 47.7342 61.6732 49.9664C61.9313 51.5117 61.9313 52.9712 62.0174 54.4307C62.0174 55.8902 62.1034 57.178 62.2755 58.4658C62.7057 60.7838 64.1683 63.1877 66.2332 63.4452C67.6098 63.6169 68.9004 62.8443 70.277 61.8999C70.6212 61.1272 71.0514 60.2687 71.3955 59.4102C72.2559 57.4356 73.1163 55.3751 74.4069 53.9156C75.2673 52.8854 76.3857 52.1127 77.3322 51.4259C78.4507 50.6532 79.4831 49.9664 80.2575 48.8503C82.4084 45.6738 82.5805 41.7246 82.6665 37.5178C82.7526 34.8564 82.8386 32.0232 83.5269 29.4477L83.613 29.1901C84.9035 24.1248 86.9684 16.4839 81.8062 13.4791C80.9458 12.964 79.8273 12.7064 78.7948 12.7064Z" fill="#E9C62A"/>
<path d="M32.9365 35.8864C30.9577 35.8864 28.9788 35.1138 27.4301 33.6543C25.6233 31.9372 24.5908 29.5334 24.5908 27.1295C24.5908 25.8417 25.021 24.7256 25.6233 23.8671C26.3116 23.0086 27.258 22.4935 28.0324 22.15L29.409 21.4632C34.6573 18.8877 38.443 16.9989 41.9705 12.277C42.6589 11.3326 43.3472 10.3024 44.0355 9.27218C45.6702 6.95416 47.2189 4.46444 49.5419 2.57568C52.9834 -0.343299 58.834 -1.28768 62.0175 2.14642L60.1246 3.86347C57.8876 1.4596 53.7578 2.31813 51.1766 4.46444C49.1978 6.09564 47.7351 8.3278 46.2725 10.6458C45.5842 11.676 44.8958 12.7921 44.1215 13.7365C40.2498 18.9735 36.0339 21.034 30.6135 23.6954L29.2369 24.3822C28.6346 24.6398 28.0324 24.9832 27.6882 25.4124C27.344 25.9276 27.172 26.6144 27.172 27.1295C27.0859 28.7607 27.8603 30.4777 29.1508 31.6797C30.3554 32.7958 31.9041 33.3109 33.3667 33.225L33.6248 35.8006C33.4528 35.8864 33.1946 35.8864 32.9365 35.8864Z" fill="#E9C62A"/>
</svg>
